<svg id="visual" viewBox="0 0 960 540" width="960" height="540" xmlns="http://www.w3.org/2000/svg" xmlns:xlink="http://www.w3.org/1999/xlink" version="1.1"><rect x="0" y="0" width="960" height="540" fill="#001220"></rect><defs><linearGradient id="grad1_0" x1="43.8%" y1="0%" x2="100%" y2="100%"><stop offset="14.444444444444446%" stop-color="#fbae3c" stop-opacity="1"></stop><stop offset="85.55555555555554%" stop-color="#fbae3c" stop-opacity="1"></stop></linearGradient></defs><defs><linearGradient id="grad1_1" x1="43.8%" y1="0%" x2="100%" y2="100%"><stop offset="14.444444444444446%" stop-color="#fbae3c" stop-opacity="1"></stop><stop offset="85.55555555555554%" stop-color="#f48350" stop-opacity="1"></stop></linearGradient></defs><defs><linearGradient id="grad1_2" x1="43.8%" y1="0%" x2="100%" y2="100%"><stop offset="14.444444444444446%" stop-color="#d96162" stop-opacity="1"></stop><stop offset="85.55555555555554%" stop-color="#f48350" stop-opacity="1"></stop></linearGradient></defs><defs><linearGradient id="grad1_3" x1="43.8%" y1="0%" x2="100%" y2="100%"><stop offset="14.444444444444446%" stop-color="#d96162" stop-opacity="1"></stop><stop offset="85.55555555555554%" stop-color="#af4b6d" stop-opacity="1"></stop></linearGradient></defs><defs><linearGradient id="grad1_4" x1="43.8%" y1="0%" x2="100%" y2="100%"><stop offset="14.444444444444446%" stop-color="#7c3e6b" stop-opacity="1"></stop><stop offset="85.55555555555554%" stop-color="#af4b6d" stop-opacity="1"></stop></linearGradient></defs><defs><linearGradient id="grad1_5" x1="43.8%" y1="0%" x2="100%" y2="100%"><stop offset="14.444444444444446%" stop-color="#7c3e6b" stop-opacity="1"></stop><stop offset="85.55555555555554%" stop-color="#49335c" stop-opacity="1"></stop></linearGradient></defs><defs><linearGradient id="grad1_6" x1="43.8%" y1="0%" x2="100%" y2="100%"><stop offset="14.444444444444446%" stop-color="#1d2540" stop-opacity="1"></stop><stop offset="85.55555555555554%" stop-color="#49335c" stop-opacity="1"></stop></linearGradient></defs><defs><linearGradient id="grad1_7" x1="43.8%" y1="0%" x2="100%" y2="100%"><stop offset="14.444444444444446%" stop-color="#1d2540" stop-opacity="1"></stop><stop offset="85.55555555555554%" stop-color="#001220" stop-opacity="1"></stop></linearGradient></defs><defs><linearGradient id="grad2_0" x1="0%" y1="0%" x2="56.3%" y2="100%"><stop offset="14.444444444444446%" stop-color="#fbae3c" stop-opacity="1"></stop><stop offset="85.55555555555554%" stop-color="#fbae3c" stop-opacity="1"></stop></linearGradient></defs><defs><linearGradient id="grad2_1" x1="0%" y1="0%" x2="56.3%" y2="100%"><stop offset="14.444444444444446%" stop-color="#f48350" stop-opacity="1"></stop><stop offset="85.55555555555554%" stop-color="#fbae3c" stop-opacity="1"></stop></linearGradient></defs><defs><linearGradient id="grad2_2" x1="0%" y1="0%" x2="56.3%" y2="100%"><stop offset="14.444444444444446%" stop-color="#f48350" stop-opacity="1"></stop><stop offset="85.55555555555554%" stop-color="#d96162" stop-opacity="1"></stop></linearGradient></defs><defs><linearGradient id="grad2_3" x1="0%" y1="0%" x2="56.3%" y2="100%"><stop offset="14.444444444444446%" stop-color="#af4b6d" stop-opacity="1"></stop><stop offset="85.55555555555554%" stop-color="#d96162" stop-opacity="1"></stop></linearGradient></defs><defs><linearGradient id="grad2_4" x1="0%" y1="0%" x2="56.3%" y2="100%"><stop offset="14.444444444444446%" stop-color="#af4b6d" stop-opacity="1"></stop><stop offset="85.55555555555554%" stop-color="#7c3e6b" stop-opacity="1"></stop></linearGradient></defs><defs><linearGradient id="grad2_5" x1="0%" y1="0%" x2="56.3%" y2="100%"><stop offset="14.444444444444446%" stop-color="#49335c" stop-opacity="1"></stop><stop offset="85.55555555555554%" stop-color="#7c3e6b" stop-opacity="1"></stop></linearGradient></defs><defs><linearGradient id="grad2_6" x1="0%" y1="0%" x2="56.3%" y2="100%"><stop offset="14.444444444444446%" stop-color="#49335c" stop-opacity="1"></stop><stop offset="85.55555555555554%" stop-color="#1d2540" stop-opacity="1"></stop></linearGradient></defs><defs><linearGradient id="grad2_7" x1="0%" y1="0%" x2="56.3%" y2="100%"><stop offset="14.444444444444446%" stop-color="#001220" stop-opacity="1"></stop><stop offset="85.55555555555554%" stop-color="#1d2540" stop-opacity="1"></stop></linearGradient></defs><g transform="translate(960, 0)"><path d="M0 486C-61.1 432.7 -122.2 379.4 -199.5 345.5C-276.8 311.7 -370.4 297.3 -420.9 243C-471.3 188.7 -478.7 94.3 -486 0L0 0Z" fill="#0c1c30"></path><path d="M0 425.3C-53.4 378.6 -106.9 332 -174.6 302.4C-242.2 272.7 -324.1 260.2 -368.3 212.6C-412.4 165.1 -418.8 82.5 -425.2 0L0 0Z" fill="#312c4f"></path><path d="M0 364.5C-45.8 324.5 -91.6 284.5 -149.6 259.2C-207.6 233.8 -277.8 223 -315.7 182.3C-353.5 141.5 -359 70.7 -364.5 0L0 0Z" fill="#623965"></path><path d="M0 303.8C-38.2 270.4 -76.4 237.1 -124.7 216C-173 194.8 -231.5 185.8 -263.1 151.9C-294.6 117.9 -299.2 59 -303.7 0L0 0Z" fill="#96446e"></path><path d="M0 243C-30.5 216.3 -61.1 189.7 -99.7 172.8C-138.4 155.9 -185.2 148.7 -210.4 121.5C-235.7 94.3 -239.3 47.2 -243 0L0 0Z" fill="#c55469"></path><path d="M0 182.3C-22.9 162.3 -45.8 142.3 -74.8 129.6C-103.8 116.9 -138.9 111.5 -157.8 91.1C-176.8 70.7 -179.5 35.4 -182.2 0L0 0Z" fill="#e9705a"></path><path d="M0 121.5C-15.3 108.2 -30.5 94.8 -49.9 86.4C-69.2 77.9 -92.6 74.3 -105.2 60.8C-117.8 47.2 -119.7 23.6 -121.5 0L0 0Z" fill="#fa9845"></path><path d="M0 60.8C-7.6 54.1 -15.3 47.4 -24.9 43.2C-34.6 39 -46.3 37.2 -52.6 30.4C-58.9 23.6 -59.8 11.8 -60.7 0L0 0Z" fill="#fbae3c"></path></g><g transform="translate(0, 540)"><path d="M0 -486C51.5 -416.1 103 -346.1 181.5 -314.4C260 -282.6 365.6 -289 420.9 -243C476.1 -197 481.1 -98.5 486 0L0 0Z" fill="#0c1c30"></path><path d="M0 -425.2C45 -364.1 90.1 -302.9 158.8 -275.1C227.5 -247.3 319.9 -252.9 368.3 -212.6C416.6 -172.3 420.9 -86.2 425.3 0L0 0Z" fill="#312c4f"></path><path d="M0 -364.5C38.6 -312 77.2 -259.6 136.1 -235.8C195 -212 274.2 -216.8 315.7 -182.3C357.1 -147.7 360.8 -73.9 364.5 0L0 0Z" fill="#623965"></path><path d="M0 -303.7C32.2 -260 64.4 -216.3 113.4 -196.5C162.5 -176.6 228.5 -180.6 263.1 -151.9C297.6 -123.1 300.7 -61.6 303.8 0L0 0Z" fill="#96446e"></path><path d="M0 -243C25.7 -208 51.5 -173.1 90.7 -157.2C130 -141.3 182.8 -144.5 210.4 -121.5C238.1 -98.5 240.5 -49.2 243 0L0 0Z" fill="#c55469"></path><path d="M0 -182.2C19.3 -156 38.6 -129.8 68.1 -117.9C97.5 -106 137.1 -108.4 157.8 -91.1C178.6 -73.9 180.4 -36.9 182.3 0L0 0Z" fill="#e9705a"></path><path d="M0 -121.5C12.9 -104 25.7 -86.5 45.4 -78.6C65 -70.7 91.4 -72.3 105.2 -60.8C119 -49.2 120.3 -24.6 121.5 0L0 0Z" fill="#fa9845"></path><path d="M0 -60.7C6.4 -52 12.9 -43.3 22.7 -39.3C32.5 -35.3 45.7 -36.1 52.6 -30.4C59.5 -24.6 60.1 -12.3 60.8 0L0 0Z" fill="#fbae3c"></path></g></svg>